<svg xmlns="http://www.w3.org/2000/svg" viewBox="0 0 79.375 79.375"><path d="M39.687 39.687v20.484H29.446v-5.12h2.56v1.28m0-1.28h1.28m-1.28 0v-1.28m-2.56 1.28V52.49h1.28m-1.28 0v-1.28m0 1.28h-1.28m1.28 2.56h-2.56v-1.28m0 1.28h-1.281m1.28 0v1.28m2.56 3.841h-5.12v-2.56h1.28m-1.28 0v-1.28m0 1.28h-1.28m1.28 2.56h-2.56v-1.28m0 1.28h-1.281m1.28 0v1.28m2.56-1.28v2.56h-1.28m1.28 0v1.281m0-1.28h1.28m3.842-2.56v5.12h-2.56v-1.28m0 1.28h-1.281m1.28 0v1.28m2.56-1.28v2.56h-1.28m1.28 0v1.281m0-1.28h1.28m-1.28-2.56h2.561v1.28m0-1.28h1.28m-1.28 0v-1.28m7.681-3.842v10.242h-5.12v-2.56h1.28m-1.28 0v-1.28m0 1.28h-1.28m1.28 2.56h-2.56v-1.28m0 1.28h-1.281m1.28 0v1.28m2.56-1.28v2.56h-1.28m1.28 0v1.281m0-1.28h1.28m3.841-2.56v5.12h-2.56v-1.28m0 1.28h-1.28m1.28 0v1.28m2.56-1.28v2.56h-1.28m1.28 0v1.281m0-1.28h1.28m-1.28-2.56h2.561v1.28m0-1.28h1.28m-1.28 0v-1.281m-2.56-3.84h5.12v2.56h-1.28m1.28 0v1.28m0-1.28h1.28m-1.28-2.56h2.56v1.28m0-1.28h1.281m-1.28 0v-1.28m-2.56 1.28v-2.561h1.28m-1.28 0v-1.28m0 1.28h-1.28m-3.842-7.682H49.93v5.121h-2.56v-1.28m0 1.28h-1.28m1.28 0v1.28m2.56-1.28v2.56h-1.28m1.28 0v1.281m0-1.28h1.28m-1.28-2.56h2.56v1.28m0-1.28h1.281m-1.28 0v-1.28m-2.56-3.842h5.12v2.56h-1.28m1.28 0v1.281m0-1.28h1.28m-1.28-2.56h2.56v1.28m0-1.28h1.281m-1.28 0v-1.28m-2.56 1.28V57.61h1.28m-1.28 0v-1.28m0 1.28h-1.28m-3.842 2.56v-5.12h2.56v1.28m0-1.28h1.281m-1.28 0v-1.28m-2.56 1.28V52.49h1.28m-1.28 0v-1.28m0 1.28h-1.28m1.28 2.56h-2.561v-1.28m0 1.28h-1.28m1.28 0v1.28m-7.682-16.643h20.484V49.93h-5.12v-2.56h1.28m-1.28 0v-1.28m0 1.28h-1.28m1.28 2.56H52.49v-1.28m0 1.28h-1.28m1.28 0v1.28m2.56-1.28v2.56h-1.28m1.28 0v1.281m0-1.28h1.28m3.841-2.56v5.12h-2.56v-1.28m0 1.28h-1.28m1.28 0v1.28m2.56-1.28v2.56h-1.28m1.28 0v1.281m0-1.28h1.28m-1.28-2.56h2.56v1.28m0-1.28h1.281m-1.28 0v-1.28m-2.56-3.842h5.12v2.56h-1.28m1.28 0v1.281m0-1.28h1.28m-1.28-2.56h2.56v1.28m0-1.28h1.281m-1.28 0v-1.28m-2.56 1.28v-2.561h1.28m-1.28 0v-1.28m0 1.28h-1.28m-3.842-7.682h10.242v5.121h-2.56v-1.28m0 1.28h-1.28m1.28 0v1.28m2.56-1.28v2.56h-1.28m1.28 0v1.281m0-1.28h1.28m-1.28-2.56h2.56v1.28m0-1.28h1.281m-1.28 0v-1.28m-2.56-3.842h5.12v2.561h-1.28m1.28 0v1.28m0-1.28h1.28m-1.28-2.56h2.56v1.28m0-1.28h1.281m-1.28 0v-1.28m-2.56 1.28v-2.561h1.28m-1.28 0v-1.28m0 1.28h-1.281m-3.84 2.56v-5.12h2.56v1.28m0-1.28h1.28m-1.28 0v-1.28m-2.56 1.28v-2.56h1.28m-1.28 0v-1.281m0 1.28h-1.28m1.28 2.56h-2.561v-1.28m0 1.28h-1.28m1.28 0v1.28m-7.682 3.841V29.446h5.121v2.56h-1.28m1.28 0v1.28m0-1.28h1.28m-1.28-2.56h2.56v1.28m0-1.28h1.281m-1.28 0v-1.28m-2.56 1.28v-2.56h1.28m-1.28 0v-1.281m0 1.28h-1.28m-3.842 2.56v-5.12h2.56v1.28m0-1.28h1.281m-1.28 0v-1.28m-2.56 1.28v-2.56h1.28m-1.28 0v-1.281m0 1.28h-1.28m1.28 2.56H57.61v-1.28m0 1.28h-1.28m1.28 0v1.28m2.56 3.842h-5.12v-2.56h1.28m-1.28 0v-1.281m0 1.28h-1.28m1.28 2.56H52.49v-1.28m0 1.28h-1.28m1.28 0v1.28m2.56-1.28v2.561h-1.28m1.28 0v1.28m0-1.28h1.28m-16.643 7.681V19.204H49.93v5.12h-2.56v-1.28m0 1.28h-1.28m1.28 0v1.28m2.56-1.28v2.561h-1.28m1.28 0v1.28m0-1.28h1.28m-1.28-2.56h2.56v1.28m0-1.28h1.281m-1.28 0v-1.28m-2.56-3.841h5.12v2.56h-1.28m1.28 0v1.28m0-1.28h1.28m-1.28-2.56h2.56v1.28m0-1.28h1.281m-1.28 0v-1.28m-2.56 1.28v-2.56h1.28m-1.28 0v-1.281m0 1.28h-1.28m-3.842 2.56v-5.12h2.56v1.28m0-1.28h1.281m-1.28 0v-1.28m-2.56 1.28v-2.56h1.28m-1.28 0v-1.281m0 1.28h-1.28m1.28 2.56h-2.561v-1.28m0 1.28h-1.28m1.28 0v1.28m-7.682 3.842V8.962h5.121v2.56h-1.28m1.28 0v1.28m0-1.28h1.28m-1.28-2.56h2.56v1.28m0-1.28h1.281m-1.28 0v-1.28m-2.56 1.28v-2.56h1.28m-1.28 0V5.12m0 1.28h-1.28m-3.842 2.56v-5.12h2.561v1.28m0-1.28h1.28m-1.28 0V2.56m-2.56 1.28V1.28h1.28m-1.28 0V0m0 1.28h-1.28m1.28 2.56h-2.561V2.56m0 1.28h-1.28m1.28 0v1.281m2.56 3.84h-5.12v-2.56h1.28m-1.28 0v-1.28m0 1.28h-1.28m1.28 2.56h-2.56v-1.28m0 1.28h-1.281m1.28 0v1.28m2.56-1.28v2.561h-1.28m1.28 0v1.28m0-1.28h1.28m3.841 7.682H29.446v-5.121h2.56v1.28m0-1.28h1.28m-1.28 0v-1.28m-2.56 1.28v-2.56h1.28m-1.28 0v-1.281m0 1.28h-1.28m1.28 2.56h-2.56v-1.28m0 1.28h-1.281m1.28 0v1.28m2.56 3.842h-5.12v-2.56h1.28m-1.28 0v-1.281m0 1.28h-1.28m1.28 2.56h-2.56v-1.28m0 1.28h-1.281m1.28 0v1.28m2.56-1.28v2.561h-1.28m1.28 0v1.28m0-1.28h1.28m3.842-2.56v5.12h-2.56v-1.28m0 1.28h-1.281m1.28 0v1.28m2.56-1.28v2.561h-1.28m1.28 0v1.28m0-1.28h1.28m-1.28-2.56h2.561v1.28m0-1.28h1.28m-1.28 0v-1.28m7.681 16.642H19.204V29.446h5.12v2.56h-1.28m1.28 0v1.28m0-1.28h1.28m-1.28-2.56h2.561v1.28m0-1.28h1.28m-1.28 0v-1.28m-2.56 1.28v-2.56h1.28m-1.28 0v-1.281m0 1.28h-1.28m-3.841 2.56v-5.12h2.56v1.28m0-1.28h1.28m-1.28 0v-1.28m-2.56 1.28v-2.56h1.28m-1.28 0v-1.281m0 1.28h-1.28m1.28 2.56h-2.56v-1.28m0 1.28h-1.281m1.28 0v1.28m2.56 3.842h-5.12v-2.56h1.28m-1.28 0v-1.281m0 1.28h-1.28m1.28 2.56h-2.56v-1.28m0 1.28h-1.281m1.28 0v1.28m2.56-1.28v2.561h-1.28m1.28 0v1.28m0-1.28h1.28m3.842 7.681H8.962v-5.12h2.56v1.28m0-1.28h1.28m-1.28 0v-1.28m-2.56 1.28v-2.56h1.28m-1.28 0v-1.281m0 1.28h-1.28m1.28 2.56h-2.56v-1.28m0 1.28H5.12m1.28 0v1.28m2.56 3.841h-5.12v-2.56h1.28m-1.28 0v-1.28m0 1.28H2.56m1.28 2.56H1.28v-1.28m0 1.28H0m1.28 0v1.28m2.56-1.28v2.561H2.56m1.28 0v1.28m0-1.28h1.281m3.84-2.56v5.12h-2.56v-1.28m0 1.28h-1.28m1.28 0v1.28m2.56-1.28v2.56h-1.28m1.28 0v1.281m0-1.28h1.28m-1.28-2.56h2.561v1.28m0-1.28h1.28m-1.28 0v-1.28m7.682-3.842V49.93h-5.121v-2.56h1.28m-1.28 0v-1.28m0 1.28h-1.28m1.28 2.56h-2.56v-1.28m0 1.28h-1.281m1.28 0v1.28m2.56-1.28v2.56h-1.28m1.28 0v1.281m0-1.28h1.28m3.842-2.56v5.12h-2.56v-1.28m0 1.28h-1.281m1.28 0v1.28m2.56-1.28v2.56h-1.28m1.28 0v1.281m0-1.28h1.28m-1.28-2.56h2.561v1.28m0-1.28h1.28m-1.28 0v-1.28m-2.56-3.842h5.12v2.56h-1.28m1.28 0v1.281m0-1.28h1.28m-1.28-2.56h2.561v1.28m0-1.28h1.28m-1.28 0v-1.28m-2.56 1.28v-2.561h1.28m-1.28 0v-1.28m0 1.28h-1.28" style="fill:none;stroke:red;stroke-width:.5;stroke-linecap:vytt"/></svg>